<?xml version="1.0" standalone="no" ?>
<svg
  xmlns="http://www.w3.org/2000/svg"
  height="512"
  viewbox="0 0 512 512"
  width="512"
>
  <style>
    .ear {
      fill: oklch(85% 25% 345deg);
      stroke: oklch(20% 2.5% 255deg);
    }

    #background {
      fill: oklch(65% 47.5% 255deg);
    }

    @media (color-gamut: p3) {
      .ear {
        fill: oklch(85% 31.25% 345deg);
      }

      #background {
        fill: oklch(65% 50% 255deg);
      }
    }
  </style>
  <g clip-path="clip-path">
    <rect fill="#2a8eff" height="512" id="background" width="512" />
    <path
      clip-rule="evenodd"
      d="M124 304V208C124 146.144 183.098 96 256 96C328.902 96 388 146.144 388 208V304C388 365.856 328.902 416 256 416C183.098 416 124 365.856 124 304Z"
      fill="white"
      fill-rule="evenodd"
    />
    <mask
      fill="black"
      height="257"
      id="mask1"
      maskUnits="userSpaceOnUse"
      width="214"
      x="149"
      y="127"
    >
      <rect fill="white" height="257" width="214" x="149" y="127" />
      <path
        d="M256.75 352C240.833 352 227.208 349.5 215.875 344.5C204.625 339.417 196 332.083 190 322.5C184 312.917 181 301.375 181 287.875H218.75C218.833 294.542 220.417 300.292 223.5 305.125C226.667 309.958 231.083 313.667 236.75 316.25C242.5 318.75 249.292 320 257.125 320C264.208 320 270.333 319.042 275.5 317.125C280.75 315.125 284.833 312.375 287.75 308.875C290.75 305.292 292.25 301.125 292.25 296.375C292.25 292.458 291.083 289.042 288.75 286.125C286.5 283.125 282.917 280.542 278 278.375C273.167 276.208 266.792 274.25 258.875 272.5L239.375 268.375C220.958 264.375 207.208 258.083 198.125 249.5C189.125 240.833 184.625 229.833 184.625 216.5C184.625 205.167 187.583 195.25 193.5 186.75C199.417 178.25 207.708 171.625 218.375 166.875C229.042 162.125 241.417 159.75 255.5 159.75C269.917 159.75 282.333 162.167 292.75 167C303.25 171.833 311.375 178.75 317.125 187.75C322.958 196.75 326.083 207.5 326.5 220H289.875C289.208 211.25 285.833 204.375 279.75 199.375C273.667 194.375 265.667 191.875 255.75 191.875C249.583 191.875 244.083 192.833 239.25 194.75C234.417 196.667 230.625 199.333 227.875 202.75C225.125 206.167 223.75 210.125 223.75 214.625C223.75 218.458 224.833 221.75 227 224.5C229.167 227.167 232.583 229.542 237.25 231.625C242 233.708 248.167 235.583 255.75 237.25L273.375 241C283.375 243.167 292 245.833 299.25 249C306.5 252.083 312.458 255.792 317.125 260.125C321.792 264.375 325.25 269.292 327.5 274.875C329.75 280.458 330.875 286.792 330.875 293.875C330.875 305.875 327.875 316.25 321.875 325C315.958 333.667 307.458 340.333 296.375 345C285.292 349.667 272.083 352 256.75 352Z"
      />
    </mask>
    <path
      d="M215.875 344.5L202.698 373.661L202.828 373.72L202.959 373.777L215.875 344.5ZM181 287.875V255.875H149V287.875H181ZM218.75 287.875L250.747 287.475L250.353 255.875H218.75V287.875ZM223.5 305.125L196.522 322.335L196.627 322.499L196.733 322.662L223.5 305.125ZM236.75 316.25L223.476 345.367L223.732 345.484L223.991 345.596L236.75 316.25ZM275.5 317.125L286.63 347.127L286.761 347.078L286.892 347.029L275.5 317.125ZM287.75 308.875L263.214 288.333L263.19 288.361L263.167 288.389L287.75 308.875ZM288.75 286.125L263.15 305.325L263.45 305.725L263.762 306.115L288.75 286.125ZM278 278.375L264.91 307.575L265.003 307.617L265.096 307.658L278 278.375ZM258.875 272.5L265.782 241.254L265.64 241.223L265.498 241.193L258.875 272.5ZM239.375 268.375L232.583 299.646L232.668 299.664L232.752 299.682L239.375 268.375ZM198.125 249.5L175.928 272.55L176.037 272.655L176.147 272.758L198.125 249.5ZM193.5 186.75L167.236 168.468L193.5 186.75ZM292.75 167L279.281 196.027L279.325 196.048L279.369 196.068L292.75 167ZM317.125 187.75L290.159 204.978L290.215 205.067L290.272 205.155L317.125 187.75ZM326.5 220V252H359.584L358.482 218.934L326.5 220ZM289.875 220L257.967 222.431L260.22 252H289.875V220ZM227 224.5L201.864 244.304L202.013 244.493L202.164 244.679L227 224.5ZM237.25 231.625L224.205 260.845L224.301 260.888L224.397 260.93L237.25 231.625ZM255.75 237.25L248.881 268.504L248.986 268.527L249.091 268.549L255.75 237.25ZM273.375 241L280.151 209.726L280.093 209.713L280.034 209.701L273.375 241ZM299.25 249L286.441 278.325L286.584 278.387L286.726 278.448L299.25 249ZM317.125 260.125L295.351 283.574L295.464 283.68L295.578 283.784L317.125 260.125ZM321.875 325L295.484 306.903L295.465 306.93L295.446 306.957L321.875 325ZM296.375 345L283.957 315.508L296.375 345ZM256.75 352V320C244.064 320 235.072 317.994 228.791 315.223L215.875 344.5L202.959 373.777C219.344 381.006 237.603 384 256.75 384V352ZM215.875 344.5L229.052 315.339C222.998 312.604 219.469 309.266 217.123 305.519L190 322.5L162.877 339.481C172.531 354.9 186.252 366.23 202.698 373.661L215.875 344.5ZM190 322.5L217.123 305.519C214.881 301.939 213 296.546 213 287.875H181H149C149 306.204 153.119 323.894 162.877 339.481L190 322.5ZM181 287.875V319.875H218.75V287.875V255.875H181V287.875ZM218.75 287.875L186.752 288.275C186.898 299.915 189.739 311.703 196.522 322.335L223.5 305.125L250.478 287.915C250.59 288.091 250.681 288.264 250.749 288.417C250.816 288.57 250.845 288.668 250.852 288.692C250.866 288.745 250.759 288.389 250.747 287.475L218.75 287.875ZM223.5 305.125L196.733 322.662C203.472 332.947 212.754 340.479 223.476 345.367L236.75 316.25L250.024 287.133C249.811 287.036 249.702 286.97 249.674 286.953C249.648 286.937 249.685 286.958 249.764 287.024C249.844 287.091 249.94 287.183 250.039 287.294C250.138 287.405 250.214 287.508 250.267 287.588L223.5 305.125ZM236.75 316.25L223.991 345.596C234.637 350.225 245.962 352 257.125 352V320V288C252.622 288 250.363 287.275 249.509 286.904L236.75 316.25ZM257.125 320V352C266.975 352 277.047 350.682 286.63 347.127L275.5 317.125L264.37 287.123C263.619 287.401 261.441 288 257.125 288V320ZM275.5 317.125L286.892 347.029C296.09 343.525 305.169 337.957 312.333 329.361L287.75 308.875L263.167 288.389C263.796 287.634 264.357 287.201 264.625 287.021C264.87 286.856 264.765 286.971 264.108 287.221L275.5 317.125ZM287.75 308.875L312.286 329.417C320.194 319.972 324.25 308.501 324.25 296.375H292.25H260.25C260.25 295.324 260.427 293.862 261.017 292.223C261.609 290.578 262.436 289.262 263.214 288.333L287.75 308.875ZM292.25 296.375H324.25C324.25 285.573 320.843 275.016 313.738 266.135L288.75 286.125L263.762 306.115C262.701 304.788 261.744 303.126 261.092 301.216C260.446 299.324 260.25 297.636 260.25 296.375H292.25ZM288.75 286.125L314.35 266.925C307.682 258.034 298.803 252.573 290.904 249.092L278 278.375L265.096 307.658C265.929 308.025 266.024 308.157 265.661 307.895C265.283 307.623 264.275 306.825 263.15 305.325L288.75 286.125ZM278 278.375L291.09 249.175C283.519 245.781 274.831 243.255 265.782 241.254L258.875 272.5L251.968 303.746C258.752 305.245 262.814 306.636 264.91 307.575L278 278.375ZM258.875 272.5L265.498 241.193L245.998 237.068L239.375 268.375L232.752 299.682L252.252 303.807L258.875 272.5ZM239.375 268.375L246.167 237.104C230.763 233.759 223.319 229.281 220.103 226.241L198.125 249.5L176.147 272.758C191.097 286.886 211.153 294.991 232.583 299.646L239.375 268.375ZM198.125 249.5L220.322 226.45C218.039 224.252 216.625 221.788 216.625 216.5H184.625H152.625C152.625 237.879 160.211 257.414 175.928 272.55L198.125 249.5ZM184.625 216.5H216.625C216.625 211.057 217.934 207.66 219.764 205.032L193.5 186.75L167.236 168.468C157.232 182.84 152.625 199.276 152.625 216.5H184.625ZM193.5 186.75L219.764 205.032C221.936 201.91 225.361 198.793 231.393 196.108L218.375 166.875L205.357 137.642C190.055 144.457 176.897 154.59 167.236 168.468L193.5 186.75ZM218.375 166.875L231.393 196.108C237.208 193.518 244.995 191.75 255.5 191.75V159.75V127.75C237.838 127.75 220.876 130.732 205.357 137.642L218.375 166.875ZM255.5 159.75V191.75C266.418 191.75 274.019 193.586 279.281 196.027L292.75 167L306.219 137.973C290.648 130.748 273.415 127.75 255.5 127.75V159.75ZM292.75 167L279.369 196.068C284.778 198.558 287.982 201.571 290.159 204.978L317.125 187.75L344.091 170.522C334.768 155.929 321.722 145.109 306.131 137.932L292.75 167ZM317.125 187.75L290.272 205.155C292.45 208.515 294.262 213.399 294.518 221.066L326.5 220L358.482 218.934C357.904 201.601 353.467 184.985 343.978 170.345L317.125 187.75ZM326.5 220V188H289.875V220V252H326.5V220ZM289.875 220L321.783 217.569C320.537 201.217 313.697 185.855 300.069 174.654L279.75 199.375L259.431 224.096C259.283 223.974 259.041 223.749 258.774 223.413C258.505 223.075 258.283 222.718 258.118 222.383C257.771 221.675 257.899 221.527 257.967 222.431L289.875 220ZM279.75 199.375L300.069 174.654C286.904 163.833 271.109 159.875 255.75 159.875V191.875V223.875C258.047 223.875 259.238 224.167 259.643 224.293C259.966 224.394 259.774 224.378 259.431 224.096L279.75 199.375ZM255.75 191.875V159.875C246.28 159.875 236.67 161.349 227.454 165.004L239.25 194.75L251.046 224.496C251.496 224.318 252.886 223.875 255.75 223.875V191.875ZM239.25 194.75L227.454 165.004C218.437 168.579 209.757 174.225 202.947 182.686L227.875 202.75L252.803 222.814C252.198 223.567 251.603 224.072 251.19 224.362C250.798 224.638 250.688 224.639 251.046 224.496L239.25 194.75ZM227.875 202.75L202.947 182.686C195.493 191.947 191.75 203.032 191.75 214.625H223.75H255.75C255.75 215.685 255.579 217.143 255.009 218.782C254.437 220.431 253.622 221.797 252.803 222.814L227.875 202.75ZM223.75 214.625H191.75C191.75 224.918 194.822 235.366 201.864 244.304L227 224.5L252.136 204.696C253.34 206.225 254.32 208.025 254.959 209.965C255.586 211.871 255.75 213.501 255.75 214.625H223.75ZM227 224.5L202.164 244.679C208.663 252.678 217.008 257.632 224.205 260.845L237.25 231.625L250.295 202.405C249.393 202.002 249.195 201.827 249.452 202.006C249.709 202.184 250.676 202.894 251.836 204.321L227 224.5ZM237.25 231.625L224.397 260.93C231.768 264.163 240.149 266.585 248.881 268.504L255.75 237.25L262.619 205.996C256.184 204.582 252.232 203.254 250.103 202.32L237.25 231.625ZM255.75 237.25L249.091 268.549L266.716 272.299L273.375 241L280.034 209.701L262.409 205.951L255.75 237.25ZM273.375 241L266.599 272.274C275.096 274.115 281.601 276.211 286.441 278.325L299.25 249L312.059 219.675C302.399 215.456 291.654 212.218 280.151 209.726L273.375 241ZM299.25 249L286.726 278.448C291.347 280.413 293.954 282.278 295.351 283.574L317.125 260.125L338.899 236.676C330.962 229.305 321.653 223.754 311.774 219.552L299.25 249ZM317.125 260.125L295.578 283.784C296.866 284.957 297.455 285.931 297.819 286.836L327.5 274.875L357.181 262.914C353.045 252.653 346.717 243.793 338.672 236.466L317.125 260.125ZM327.5 274.875L297.819 286.836C298.292 288.009 298.875 290.179 298.875 293.875H330.875H362.875C362.875 283.405 361.208 272.908 357.181 262.914L327.5 274.875ZM330.875 293.875H298.875C298.875 300.292 297.364 304.161 295.484 306.903L321.875 325L348.266 343.097C358.386 328.339 362.875 311.458 362.875 293.875H330.875ZM321.875 325L295.446 306.957C293.487 309.828 290.216 312.872 283.957 315.508L296.375 345L308.793 374.492C324.701 367.794 338.43 357.506 348.304 343.043L321.875 325ZM296.375 345L283.957 315.508C277.725 318.132 268.945 320 256.75 320V352V384C275.222 384 292.859 381.201 308.793 374.492L296.375 345Z"
      fill="#13161b"
      mask="url(#mask1)"
      style="fill: oklch(20% 2.5% 255deg);"
    />
    <mask
      height="512"
      id="mask2"
      maskUnits="userSpaceOnUse"
      width="512"
      x="0"
      y="0"
    >
      <path
        d="M512 512H0V0H512V512ZM255.5 127.75C237.838 127.75 220.876 130.732 205.357 137.643C190.055 144.457 176.897 154.59 167.236 168.469C157.232 182.841 152.625 199.276 152.625 216.5C152.625 230.686 155.966 244.059 162.806 255.875H149V287.875C149 306.204 153.118 323.895 162.877 339.481C172.531 354.901 186.252 366.23 202.698 373.661L202.828 373.72L202.959 373.777C219.345 381.006 237.603 384 256.75 384C275.222 384 292.859 381.201 308.793 374.492C324.701 367.794 338.429 357.505 348.303 343.042C358.397 328.297 362.875 311.436 362.875 293.875C362.875 283.405 361.208 272.908 357.181 262.914C355.635 259.078 353.782 255.438 351.647 252H359.584L358.482 218.934C357.907 201.663 353.497 185.105 344.078 170.503C334.773 155.947 321.764 145.148 306.218 137.974L306.219 137.973C306.212 137.97 306.206 137.968 306.199 137.965C306.176 137.954 306.153 137.943 306.13 137.933C290.582 130.737 273.381 127.75 255.5 127.75Z"
        fill="white"
      />
    </mask>
    <g mask="url(#mask2)">
      <path
        class="ear"
        d="M325.895 96.9282C324.004 95.8367 321.653 95.5171 318.211 96.6538C314.571 97.8557 310.178 100.578 305.254 104.951C295.438 113.67 285.183 127.443 276.574 142.354C268.295 156.695 264.28 171.233 264.149 182.908C264.015 194.87 267.828 201.968 272.823 204.851C277.818 207.735 285.871 207.488 296.164 201.391C306.209 195.44 316.792 184.695 325.072 170.354C333.066 156.508 336.573 139.426 336.037 124.716C335.77 117.386 334.51 110.968 332.542 106.032C330.54 101.01 328.09 98.1957 325.895 96.9282Z"
        fill="#feb4dd"
        stroke="#13161b"
        stroke-width="16"
      />
      <path
        class="ear"
        d="M186.105 96.9282C187.996 95.8367 190.347 95.5171 193.789 96.6538C197.429 97.8557 201.822 100.578 206.746 104.951C216.562 113.67 226.817 127.443 235.426 142.354C243.705 156.695 247.72 171.233 247.851 182.908C247.985 194.87 244.172 201.968 239.177 204.851C234.182 207.735 226.129 207.488 215.836 201.391C205.791 195.44 195.208 184.695 186.928 170.354C178.934 156.508 175.427 139.426 175.963 124.716C176.23 117.386 177.49 110.968 179.458 106.032C181.46 101.01 183.91 98.1957 186.105 96.9282Z"
        fill="#feb4dd"
        stroke="#13161b"
        stroke-width="16"
      />
    </g>
  </g>
  <defs>
    <clipPath id="clip-path">
      <rect fill="white" height="512" width="512" />
    </clipPath>
  </defs>
</svg>
